/* XPM */
static char *result[] = {
/* columns rows colors chars-per-pixel */
"32 32 68 1 ",
"  c #53080D",
". c #5C0A0E",
"X c #630B0F",
"o c #690D0F",
"O c #650A10",
"+ c #6B0B11",
"@ c #5A2507",
"# c #532409",
"$ c #5B2409",
"% c #6E2604",
"& c #62220A",
"* c #742702",
"= c #7B2505",
"- c #772904",
"; c #7B350D",
": c #6E301D",
"> c #71301D",
", c #8C0F15",
"< c #970F17",
"1 c #9B0F15",
"2 c #8D1312",
"3 c #971115",
"4 c #9C1116",
"5 c #A31117",
"6 c #A51817",
"7 c #A41219",
"8 c #AD141B",
"9 c #A61818",
"0 c #B4131D",
"q c #BA141F",
"w c #812507",
"e c #842309",
"r c #A61E25",
"t c #B01F28",
"y c #9F2225",
"u c #A72027",
"i c #B1242B",
"p c #BA222D",
"a c #C1141F",
"s c #CC181E",
"d c #C31521",
"f c #CA1622",
"g c #D41624",
"h c #DB1725",
"j c #DE1E2C",
"k c #E11725",
"l c #E31826",
"z c #EC1A27",
"x c #ED1A28",
"c c #F51B2A",
"v c #FC1B2A",
"b c #C5232E",
"n c #DA202C",
"m c #C4303B",
"M c #F62331",
"N c #FE2432",
"B c #FE2A39",
"V c #FC4F5B",
"C c #FC5C67",
"Z c #FE5D68",
"A c #FC6A74",
"S c #EA7A81",
"D c #EA8A8E",
"F c #F6838B",
"G c #FE828C",
"H c #F2888F",
"J c #FF8992",
"K c None",
/* pixels */
"KKKKKKKKKKKKKKKKKKKKKKKKKKKKKKKK",
"KKKKKKKKKKKKKKKKKKKKKKKKKKKKKKKK",
"KKKKKKKKKKKKKKKKKK**KKKKKKKKKKKK",
"KKKKKKKKKKKKKKKKKK**KKKKKKKKKKKK",
"KKKKKKKKKKKKKKKK;;@@KKKKKKKKKKKK",
"KKKKKKKKKKKKKKKK;;@#KKKKKKKKKKKK",
"KKKKKKKKKKKKKKKK--KKKKKKKKKKKKKK",
"KKKKKKKKKKKKKKKK**KKKKKKKKKKKKKK",
"KKKKKKKKKK1113=*@@*-*-KKKKKKKKKK",
"KKKKKKKKKKur54*%$&=e==KKKKKKKKKK",
"KKKKKK110pSSt8&$24ss06=--*KKKKKK",
"KKKKKK55qbFFmi>:yinna0e---KKKKKK",
"KKKK440qxMZAFHDDHFCVMz06=***KKKK",
"KKKK150qcNVZGJJJJGCVNcs0e=**KKKK",
"KKKK45tqcvNNBBBBBBNMllczq6=*KKKK",
"KKKK140qcvvvvvvvvvvchkvca0=*KKKK",
"KKKK448qhlvvllvvlkkkhlvvhfo.KKKK",
"KKKK340qghcvlhcchhhhhhvvkfO KKKK",
"KKKK*e8qqqhkkhaqqqhhqqcvkf+ KKKK",
"KKKK-=800qgghg08qqggqqcvhfO KKKK",
"KKKK*=8q00qqqq0qhgqq0qcvd8X KKKK",
"KKKK*=980000qq0qggq0qaxz07. KKKK",
"KKKKKK=e800qgg00qq0qgga0+.KKKKKK",
"KKKKKK*=800qggq0qqqqggq7. KKKKKK",
"KKKKKK*=4500tqqqgghgtq7<. KKKKKK",
"KKKKKK*=2<80008qgghgq8<,. KKKKKK",
"KKKKKKKK.O35005157q051O.KKKKKKKK",
"KKKKKKKK .2487111175<<. KKKKKKKK",
"KKKKKKKKKK..=====*O...KKKKKKKKKK",
"KKKKKKKKKK .******    KKKKKKKKKK",
"KKKKKKKKKKKKKKKKKKKKKKKKKKKKKKKK",
"KKKKKKKKKKKKKKKKKKKKKKKKKKKKKKKK"
};
