/* XPM */
static char *b11d18f7cad847eed304610b890fe750Zev2x0weth28yEiI[] = {
/* columns rows colors chars-per-pixel */
"32 32 127 2 ",
"   c #723C2E",
".  c #733E31",
"X  c #783F34",
"o  c #764436",
"O  c #7D4435",
"+  c #774638",
"@  c #7C4638",
"#  c #7D493B",
"$  c #7D4F42",
"%  c #804736",
"&  c #814837",
"*  c #81453A",
"=  c #814B3C",
"-  c #8D4E3D",
";  c #914F3E",
":  c #8E503E",
">  c #93523F",
",  c #98543F",
"<  c #824E40",
"1  c #8D4F40",
"2  c #8E5343",
"3  c #945342",
"4  c #9A5643",
"5  c #975847",
"6  c #9C5845",
"7  c #995A49",
"8  c #AC5F4A",
"9  c #B05F4A",
"0  c #AE614B",
"q  c #B0634D",
"w  c #BD654E",
"e  c #AE6350",
"r  c #B16450",
"t  c #BF6451",
"y  c #876D67",
"u  c #8B6D66",
"i  c #8B6E69",
"p  c #926E66",
"a  c #8E7068",
"s  c #8D706A",
"d  c #8F706B",
"f  c #8E716B",
"g  c #8C716A",
"h  c #927067",
"j  c #937168",
"k  c #937168",
"l  c #9D7F74",
"z  c #9D7F75",
"x  c #9F7E75",
"c  c #9C7E76",
"v  c #9F7E77",
"b  c #9F7F76",
"n  c #A07E75",
"m  c #C1654E",
"M  c #C2664F",
"N  c #C1664F",
"B  c #C06550",
"V  c #C16550",
"C  c #C26651",
"Z  c #C16452",
"A  c #C66751",
"S  c #C26650",
"D  c #C66A51",
"F  c #C46853",
"G  c #C76852",
"H  c #C66853",
"J  c #C86850",
"K  c #C86A51",
"L  c #C86953",
"P  c #C96953",
"I  c #CA6A52",
"U  c #C86955",
"Y  c #CB6B55",
"T  c #C86954",
"R  c #9E8075",
"E  c #9D8176",
"W  c #9F8277",
"Q  c #9E8078",
"!  c #9E8179",
"~  c #9F807B",
"^  c #9F827A",
"/  c #9E827A",
"(  c #A28277",
")  c #A38176",
"_  c #A38178",
"`  c #A08278",
"'  c #A3807A",
"]  c #A0837B",
"[  c #A1837B",
"{  c #A68178",
"}  c #A48278",
"|  c #A48279",
" . c #A78279",
".. c #A5837A",
"X. c #A3857A",
"o. c #A3857B",
"O. c #A1867B",
"+. c #A0837D",
"@. c #A1847C",
"#. c #A2847C",
"$. c #A2857D",
"%. c #A1867D",
"&. c #A1847E",
"*. c #A3847F",
"=. c #A1867F",
"-. c #A3867E",
";. c #A2847B",
":. c #A8837B",
">. c #A3887E",
",. c #A48E83",
"<. c #A38C84",
"1. c #A48D84",
"2. c #A98D82",
"3. c #A98E83",
"4. c #AA8F86",
"5. c #A98E85",
"6. c #AA8F88",
"7. c #AA8F88",
"8. c #A69287",
"9. c #A7938C",
"0. c #A7938B",
"q. c #A8948B",
"w. c #A8948D",
"e. c #A9948E",
"r. c #A99690",
"t. c #A89692",
"y. c #AA9590",
/* pixels */
"q q q 0 6 5 y p L L U L L G q q q q q 0 6 7 %.{ U L q q 0 q q q ",
"0 0 0 0 4 5 i p w w Z m m w 0 0 0 0 0 8 4 7 %.{ w t 0 0 0 0 0 0 ",
"6 6 6 4 ; 3 %.x = % 3 3 4 6 6 6 6 6 6 6 ; 3 %.x = % 6 6 6 6 6 6 ",
"4 4 4 3 - 2 %.! @ O - : 4 4 4 4 4 4 3 3 - 2 %.x O O 4 4 4 4 4 4 ",
"O O . .   + w.<.o   . X : : : - O + . .   + %.c . . - - O O O O ",
"# # + o @ $ q.,.# o o @ 2 3 2 2 = # o @ o $ X.W # + 2 2 # # # # ",
"y y y g ] %.t.9.X.! i y i i y y y f ! ] %.%.t.w.%.! i i u y y y ",
"p p p j ( X.6.2.] x i p u y f f p p ] { ] { 5.2.] W p i u y i g ",
"L G L A q 0 q 0 6 6 0 0 4 7 +.{ U G q q e q r 0 6 4 q 0 6 5 y y ",
"Z w Z Z 9 q 0 0 4 6 0 8 4 5 %.{ Z w 0 0 0 8 0 8 4 4 8 8 , 4 f g ",
"O = 4 6 6 4 6 4 6 4 3 : O = %.x = & 2 3 3 3 3 3 ; ; 3 2 O = ! %.",
"O @ 4 4 4 4 4 4 4 3 1 - + # %.! @ O - - : : : 1 2 ; : - @ = ] %.",
"O O - ; 4 4 O O O O O O   o w.<.o   . . O O - - - - O O   o ] X.",
"= = 2 3 5 4 # # # # = = + $ w.<.# o + @ # = 2 2 2 2 # # o # %.%.",
"%.! i y i i i u y i ] ] ! %.t.e.%.] %.^ i i i i y y i i ^ %.t.w.",
"{ ) i u u i f f p h { { { :.5.5.] ] ..W i i f f p p p j ( ..5.5.",
"q q q 0 4 5 ] { H H U L H H r e 4 6 q 0 4 7 X.{ H G G A q q q q ",
"9 0 0 8 4 5 %.{ m m Z m m Z 0 8 4 4 0 8 4 5 ] { m m m t 0 0 8 0 ",
"6 6 6 4 ; 3 %.] 3 > 6 4 4 6 6 6 6 6 6 4 O = %.( 3 > 6 6 6 6 6 4 ",
"4 3 4 3 - 2 %.n : - 4 4 4 4 3 4 4 4 4 3 O # %.W 1 - 4 4 4 4 4 4 ",
"O O O O   + %.x O O O % - - : - O O O O   + w.<.O O - > - - ; 2 ",
"# # = = o # %.W < # = = 2 2 2 2 # # # # + $ w.1.< = 2 2 2 2 3 2 ",
"y f %.%.] %.t.w.%.! y y i i y y y i i f ! X.t.q.%.! i y i i y y ",
"u i ( { { ..5.2.] n p u i i i y p p p p ] ..6.5.] n i i u i f g ",
"6 6 0 q q q q 0 6 6 0 0 4 5 y p H G 0 0 q 0 q 0 6 6 0 e 4 5 ] X.",
"3 4 0 0 0 0 0 0 6 4 0 8 , 5 f h Z w 0 0 0 0 0 8 4 4 0 8 4 5 X.%.",
"O % 4 6 6 4 6 4 6 6 6 4 : 3 %.x 3 3 6 6 6 6 6 6 6 6 4 4 O = ! %.",
"@ O 4 4 4 4 4 4 4 4 4 4 - 2 %.W 2 2 3 4 4 4 4 4 4 4 4 3 O = X.>.",
"    O O O O O * O O O @   @ w.,.o . O O O O @ O O O O O   + 8.w.",
"+ @ * # # # # # # = # # + $ w.1.@ + = # = # = # # # = = + $ 0.t.",
"] ! y y y y i u y y u f ] X.w.9.%.] %.! y y i y y i ] %.0.q.w.w.",
"X.^ i i i i i i i g i f %.>.e.9.%.%.%.] i i i g i f %.>.w.w.w.e."
};
