/* XPM */
static char *result[] = {
/* columns rows colors chars-per-pixel */
"32 32 247 2 ",
"   c #531008",
".  c #521009",
"X  c #531009",
"o  c #521109",
"O  c #531109",
"+  c #571308",
"@  c #571408",
"#  c #5E1B0A",
"$  c #5F1B0A",
"%  c #631F09",
"&  c #601D0A",
"*  c #5A2407",
"=  c #5F2907",
"-  c #532309",
";  c #572408",
":  c #5F2C0A",
">  c #6E2704",
",  c #62210A",
"<  c #63220A",
"1  c #64230A",
"2  c #672409",
"3  c #64240B",
"4  c #66270F",
"5  c #69250B",
"6  c #612B09",
"7  c #632D0A",
"8  c #692A0F",
"9  c #702403",
"0  c #702503",
"q  c #702602",
"w  c #712703",
"e  c #732602",
"r  c #742701",
"t  c #742602",
"y  c #742702",
"u  c #722803",
"i  c #752802",
"p  c #762A02",
"a  c #792E05",
"s  c #7B2E04",
"d  c #7C2F04",
"f  c #7D2F04",
"g  c #653008",
"h  c #7A3004",
"j  c #7D3004",
"k  c #7D3305",
"l  c #7F3404",
"z  c #7E3505",
"x  c #72330C",
"c  c #7F390A",
"v  c #662810",
"b  c #714424",
"n  c #754B24",
"m  c #803504",
"M  c #813604",
"N  c #813705",
"B  c #873D06",
"V  c #833B09",
"C  c #8C4306",
"Z  c #8C4407",
"A  c #8C4507",
"S  c #9D520F",
"D  c #9C540D",
"F  c #A1540F",
"G  c #A2570F",
"H  c #AA5C0F",
"J  c #AB5D0F",
"K  c #A75C10",
"L  c #AE620F",
"P  c #AF630F",
"I  c #B1630F",
"U  c #AB6110",
"Y  c #AC6110",
"T  c #AD6210",
"R  c #AD6714",
"E  c #B16311",
"W  c #B26311",
"Q  c #B06510",
"!  c #B26411",
"~  c #B36511",
"^  c #B66B11",
"/  c #B76B11",
"(  c #B76C11",
")  c #B76C12",
"_  c #B86D14",
"`  c #BB7312",
"'  c #BC7212",
"]  c #BC7312",
"[  c #BD7312",
"{  c #BD7412",
"}  c #B97017",
"|  c #BE7718",
" . c #B16F29",
".. c #BA7527",
"X. c #BB772A",
"o. c #BE8210",
"O. c #C4850E",
"+. c #C4860E",
"@. c #C5870F",
"#. c #C5880F",
"$. c #C78B0E",
"%. c #C68911",
"&. c #C78A11",
"*. c #C78B11",
"=. c #CA8D11",
"-. c #CB8D11",
";. c #CF9311",
":. c #CD9617",
">. c #CF9B19",
",. c #D09212",
"<. c #D09312",
"1. c #D09411",
"2. c #D19611",
"3. c #D29412",
"4. c #D69911",
"5. c #D59A12",
"6. c #D69A12",
"7. c #D79B12",
"8. c #D79C13",
"9. c #D19816",
"0. c #D89D13",
"q. c #D29E18",
"w. c #D89F18",
"e. c #DBA112",
"r. c #DAA013",
"t. c #DAA113",
"y. c #DBA213",
"u. c #DBA313",
"i. c #DCA313",
"p. c #DCA413",
"a. c #DBA314",
"s. c #DCA314",
"d. c #DDA517",
"f. c #D9A018",
"g. c #DAA118",
"h. c #D8A318",
"j. c #DAA219",
"k. c #D9A41A",
"l. c #DDA618",
"z. c #DDA718",
"x. c #DDA719",
"c. c #DDA819",
"v. c #DDAA1A",
"b. c #DDAB1B",
"n. c #DDAC1B",
"m. c #DEAA1D",
"M. c #DFAB1E",
"N. c #DFAC1E",
"B. c #DFAC1F",
"V. c #DEAE1F",
"C. c #C2822F",
"Z. c #DEAF20",
"A. c #DFAF20",
"S. c #D1A02A",
"D. c #DBA528",
"F. c #DFAC2B",
"G. c #D7AD37",
"H. c #D8B038",
"J. c #D9B138",
"K. c #DCB438",
"L. c #DAB53E",
"P. c #E0B020",
"I. c #E0B121",
"U. c #E1B221",
"Y. c #E0B422",
"T. c #E1B532",
"R. c #E3BB3A",
"E. c #E8C13A",
"W. c #E8C23A",
"Q. c #E9C33A",
"!. c #E8C23B",
"~. c #E9C33B",
"^. c #E9C43B",
"/. c #EAC63F",
"(. c #E4B841",
"). c #E6C040",
"_. c #EAC640",
"`. c #EAC740",
"'. c #EBC740",
"]. c #EACA41",
"[. c #EACA42",
"{. c #EACB42",
"}. c #EBCC42",
"|. c #ECCA44",
" X c #ECCC45",
".X c #ECCC46",
"XX c #ECCE46",
"oX c #ECCE47",
"OX c #ECCF47",
"+X c #E8C74B",
"@X c #ECCF48",
"#X c #EDCE49",
"$X c #E5DB47",
"%X c #E6DC47",
"&X c #EBD148",
"*X c #EDD148",
"=X c #ECD349",
"-X c #ECD34A",
";X c #E5DB48",
":X c #E7DE49",
">X c #E8E14D",
",X c #E9E24E",
"<X c #E9E34E",
"1X c #E8E54F",
"2X c #E8E650",
"3X c #E9E650",
"4X c #E9E751",
"5X c #EAE652",
"6X c #EAE653",
"7X c #EAE756",
"8X c #EAEA54",
"9X c #EAEA55",
"0X c #EAEB55",
"qX c #EAEB56",
"wX c #EAED56",
"eX c #EAE859",
"rX c #EAEF58",
"tX c #EBEC5B",
"yX c #EBEF5D",
"uX c #ECEC5C",
"iX c #ECEF5F",
"pX c #EBF05E",
"aX c #ECF060",
"sX c #ECF067",
"dX c #ECF068",
"fX c #F3F182",
"gX c #F3F684",
"hX c #F3F685",
"jX c #F5F292",
"kX c #F5F793",
"lX c #F5F894",
"zX c #F6F895",
"xX c #F8F8A3",
"cX c #F2E3B8",
"vX c #F3E5BB",
"bX c #EBE6CD",
"nX c #ECE7CD",
"mX c #F5EDC6",
"MX c #F4ECCE",
"NX c #FAF5C8",
"BX c #FAF6C8",
"VX c #FAF6CA",
"CX c #F8F2CE",
"ZX c #FBFDCE",
"AX c #FCFED7",
"SX c #FDFFD7",
"DX c None",
/* pixels */
"DXDXDXDXDXDXDXDXDXDXDXDXDXDXDXDXDXDXDXDXDXDXDXDXDXDXDXDXDXDXDXDX",
"DXDXDXDXDXDXDXDXDXDXDXDXDXDXDXDXDXDXDXDXDXDXDXDXDXDXDXDXDXDXDXDX",
"DXDXDXDXDXDXDXDXDXDXDXDXDXDXDXDXDXDXi i DXDXDXDXDXDXDXDXDXDXDXDX",
"DXDXDXDXDXDXDXDXDXDXDXDXDXDXDXDXDXDXu w DXDXDXDXDXDXDXDXDXDXDXDX",
"DXDXDXDXDXDXDXDXDXDXDXDXDXDXDXDX~ K 6 ; DXDXDXDXDXDXDXDXDXDXDXDX",
"DXDXDXDXDXDXDXDXDXDXDXDXDXDXDXDXJ G : - DXDXDXDXDXDXDXDXDXDXDXDX",
"DXDXDXDXDXDXDXDXDXDXDXDXDXDXDXDXf d DXDXDXDXDXDXDXDXDXDXDXDXDXDX",
"DXDXDXDXDXDXDXDXDXDXDXDXDXDXDXDXw w DXDXDXDXDXDXDXDXDXDXDXDXDXDX",
"DXDXDXDXDXDXDXDXDXDXI I ! H f w * * q r y y DXDXDXDXDXDXDXDXDXDX",
"DXDXDXDXDXDXDXDXDXDXX..._ P h > 6 7 c V N M DXDXDXDXDXDXDXDXDXDX",
"DXDXDXDXDXDXE ^ 4.F.vXcXD.$.g = D R G.K.9.@.m e i i DXDXDXDXDXDX",
"DXDXDXDXDXDX^ ` h.T.BXVX(.S.n b  .C.+X#XI.q.Z l p i DXDXDXDXDXDX",
"DXDXDXDXW / 3.k.%XeXkXxXNXCXnXbXMXmXjXfX7X$Xq.O.l t i i DXDXDXDX",
"DXDXDXDXW / 6.n.1XpXgXlXZXAXSXSXAXZXzXhXuX<XY.q.A l p i DXDXDXDX",
"DXDXDXDXW / 6.n.1XrXyXiXsXdXdXdXdXsXaXtX-X&X<X;Xq.+.m y DXDXDXDX",
"DXDXDXDXW / 6.b.>XqXwXwX8X8XwXwX8X8X8X6XoXOXqX3XI.9.z 9 DXDXDXDX",
"DXDXDXDX! ( 6.c.].-X0X0X=X=XqXqX=XOXOXOX XOX9X8X}.J.8 + DXDXDXDX",
"DXDXDXDXH Q 5.z.E.[.5X6XoXXX,X>X]._.|.|._.{.8X9X*XL.v . DXDXDXDX",
"DXDXDXDXs B 1.s.l.B.{.@X.X`.A.v.x.M.`.`.M.Z.2X9X*XL.v   DXDXDXDX",
"DXDXDXDXt M ;.i.e.l.W././.W.l.y.l.m.~.W.d.v.1X9X}.H.4 X DXDXDXDX",
"DXDXDXDXy M 1.p.y.a.l.x.x.l.y.l.W.~.M.l.y.b.2X4XU.:.3 O DXDXDXDX",
"DXDXDXDXy M #.2.r.y.y.y.l.l.y.l.!.W.l.y.l.V.:X;X>.o.1 O DXDXDXDX",
"DXDXDXDXDXDXm C 2.i.y.l.!.!.l.y.l.l.y.l.W.^.P.>.x < DXDXDXDXDXDX",
"DXDXDXDXDXDXe m =.8.t.l.!.!.l.y.l.x.x.M.~.E.f.%., . DXDXDXDXDXDX",
"DXDXDXDXDXDXy j P ] 8.s.l.l.u.z.Q.'.`.~.N.f.{ U & O DXDXDXDXDXDX",
"DXDXDXDXDXDXi d F T <.8.t.t.7.w.R.)._.E.f.,.T S $ O DXDXDXDXDXDX",
"DXDXDXDXDXDXDXDX$ 5 T [ 0.0.' ) } | j.g.{ T 5 # DXDXDXDXDXDXDXDX",
"DXDXDXDXDXDXDXDXo # S Y =.-.P H H L *.&.U S # o DXDXDXDXDXDXDXDX",
"DXDXDXDXDXDXDXDXDXDX$ % k M j d d a 2 < & $ DXDXDXDXDXDXDXDXDXDX",
"DXDXDXDXDXDXDXDXDXDXO @ 9 y y y i 0 + O O O DXDXDXDXDXDXDXDXDXDX",
"DXDXDXDXDXDXDXDXDXDXDXDXDXDXDXDXDXDXDXDXDXDXDXDXDXDXDXDXDXDXDXDX",
"DXDXDXDXDXDXDXDXDXDXDXDXDXDXDXDXDXDXDXDXDXDXDXDXDXDXDXDXDXDXDXDX"
};
