/* XPM */
static char *result[] = {
/* columns rows colors chars-per-pixel */
"24 32 148 2 ",
"   c #302F2F",
".  c #323232",
"X  c #3D3E3D",
"o  c #4B270C",
"O  c #4D290E",
"+  c #522D11",
"@  c #5B3214",
"#  c #53341C",
"$  c #613618",
"%  c #6B3C1C",
"&  c #4F3620",
"*  c #543720",
"=  c #71401F",
"-  c #5E412D",
";  c #7A4524",
":  c #744B23",
">  c #794E26",
",  c #795027",
"<  c #734C37",
"1  c #705035",
"2  c #3D3D6B",
"3  c #3B3B75",
"4  c #38377F",
"5  c #37397F",
"6  c #39397A",
"7  c #3B4040",
"8  c #3B4070",
"9  c #136B79",
"0  c #206167",
"q  c #346F6A",
"w  c #464645",
"e  c #484847",
"r  c #464B4A",
"t  c #574F41",
"y  c #454753",
"u  c #4E5252",
"i  c #414162",
"p  c #496969",
"a  c #526263",
"s  c #6F7379",
"d  c #7D7472",
"f  c #894F2B",
"g  c #8E532F",
"h  c #895C32",
"j  c #945732",
"k  c #A5613A",
"l  c #AD663D",
"z  c #926D40",
"x  c #9C784A",
"c  c #A7624B",
"v  c #B56C42",
"b  c #B16A4B",
"n  c #BF7247",
"m  c #B26B59",
"M  c #A77958",
"N  c #BC7357",
"B  c #925F7A",
"V  c #9A7663",
"C  c #B27977",
"Z  c #C5754B",
"A  c #C6784D",
"S  c #CA794B",
"D  c #CA7F52",
"F  c #938462",
"G  c #BC9D6A",
"H  c #B98079",
"J  c #C78156",
"K  c #CE8456",
"L  c #CE875E",
"P  c #C98A65",
"I  c #D28E67",
"U  c #D29060",
"Y  c #D79A68",
"T  c #C9A571",
"R  c #DFAA76",
"E  c #E1AD79",
"W  c #E0AC77",
"Q  c #E3B37D",
"!  c #373780",
"~  c #383780",
"^  c #343C84",
"/  c #1B5C9C",
"(  c #2C468B",
")  c #274F92",
"_  c #275292",
"`  c #0C6EAB",
"'  c #1169A6",
"]  c #196AA2",
"[  c #0C72AC",
"{  c #0C78AD",
"}  c #1570A7",
"|  c #1479AD",
" . c #1A77A7",
".. c #0E8A93",
"X. c #138DAF",
"o. c #0F87B0",
"O. c #0F8AB1",
"+. c #108EB1",
"@. c #1093B3",
"#. c #2697A5",
"$. c #2D87B7",
"%. c #2684B6",
"&. c #15AAB7",
"*. c #1AABBA",
"=. c #14B2B9",
"-. c #15BEBB",
";. c #3FB4A8",
":. c #24AAB6",
">. c #2FA2BE",
",. c #28B9B2",
"<. c #759980",
"1. c #77999A",
"2. c #54A593",
"3. c #599AA3",
"4. c #7497A0",
"5. c #15C1BD",
"6. c #34C4B9",
"7. c #52A6C9",
"8. c #70BED6",
"9. c #26C4C1",
"0. c #75C2D5",
"q. c #A6BBA2",
"w. c #D9BA8B",
"e. c #D2A190",
"r. c #A2C8BB",
"t. c #ABDDB1",
"y. c #EEC98F",
"u. c #ECC58C",
"i. c #ECD399",
"p. c #F7DA9E",
"a. c #F2D59A",
"s. c #F9DEA1",
"d. c #E5E5AD",
"f. c #EDE6AC",
"g. c #FBE2A4",
"h. c #FFEAAB",
"j. c #FDE6A9",
"k. c #94C8C9",
"l. c #95DBE5",
"z. c #8AE3E3",
"x. c #A9E7E8",
"c. c #AEEEEE",
"v. c #A2EBEC",
"b. c #B0EFEF",
"n. c #B1EBE7",
"m. c #ADF0F1",
"M. c #B1F3F2",
"N. c None",
/* pixels */
"N.N.N.N.N.N.N.N.N.N.N.N.N.N.o + N.N.N.N.N.N.N.N.",
"N.N.N.N.N.N.N.N.N.N.O O o o o O : N.N.N.N.N.N.N.",
"N.N.N.N.N.N.N.N.N.o o + @ % ; @ : > N.N.N.N.N.N.",
"N.N.N.N.N.N.N.N.N.$ g k v Z n j > > , N.N.N.N.N.",
"N.N.N.N.N.N.N.N.N.j A S D N P n h , > N.N.N.N.N.",
"N.N.N.N.N.N.N.N.N.L C m N B e.J T z > N.N.N.N.N.",
"N.N.N.N.N.N.N.N.N.I H c l b A K a.x : N.N.N.N.N.",
"N.N.N.N.N.N.N.N.N.S k l l ; v K p.G > N.N.N.N.N.",
"N.N.N.N.N.N.N.N.N.S f % = @ l D i.i.F N.v.N.N.N.",
"Z R h.h.h.j.h.N.N.M 1 & # * - r p r.n.b.z.9.N.N.",
"Z E h.h.h.h.h.h.f.;.9 0 t < q ..#.0.8.7.>.-.N.N.",
"Z Q h.h.h.h.h.h.d.6.=.-.2.<.,.5.*.| ` ` | =.N.N.",
"A W p.s.g.g.h.h.d.6.-.-.-.-.-.5.=.[ [ ` [ :.t.N.",
"N.N.N.N.N.E Q w.q.*.-.-.-.-.-.-.=.[ ` } ] 3.f.N.",
"N.N.N.N.N.N.N.N.N.N.5.-.5.-.5.-.=. .B F M P s.N.",
"N.N.N.N.N.N.N.N.N.N.5.-.-.-.-.-.=. .V S A A y.N.",
"N.N.N.N.N.N.N.N.N.N.-.-.-.5.-.-.=.{ s A Z Z W h.",
"N.N.N.N.N.N.N.N.N.N.-.-.-.-.-.-.=.{ N.S S S U s.",
"N.N.N.N.N.N.N.N.N.N.-.-.-.-.-.5.=.{ N.S S A D u.",
"N.N.N.N.N.N.N.N.N.N.-.&.o.+.+.@.X._ N.N.A A A Y ",
"N.N.N.N.N.N.N.N.N.N.*.| ` ` [ [ / ~ N.N.N.N.N.N.",
"N.N.N.N.N.N.N.N.N.N.N./ ` ` ` / ( ! N.N.N.N.N.N.",
"N.N.N.N.N.N.N.N.N.N.' ` ` ` ' ^ 4 ~ N.N.N.N.N.N.",
"N.N.N.N.N.N.N.N.N.[ ` ` ` ' ( ~ 4 3 N.N.N.N.N.N.",
"N.N.N.N.N.N.N.N.%.[ ` ` ` ( 5 ~ 3 N.N.N.N.N.N.N.",
"N.N.N.N.N.N.N.m.l.0.7.$.) ! 5 5 i N.N.N.N.N.N.N.",
"N.N.N.N.N.N.N.k.x.M.b.4.3 ! ! 3 y N.N.N.N.N.N.N.",
"N.N.N.N.N.N.N.7 a 1.1.u 2 ! ! N.N.N.N.N.N.N.N.N.",
"N.N.N.N.N.N.N..   . X e i ~ N.N.N.N.N.N.N.N.N.N.",
"N.N.N.N.N.N.N.. . . . e y N.N.N.N.N.N.N.N.N.N.N.",
"N.N.N.N.N.N.N.N.. . . w e N.N.N.N.N.N.N.N.N.N.N.",
"N.N.N.N.N.N.N.N.N.N.. 7 N.N.N.N.N.N.N.N.N.N.N.N."
};
