/* XPM */
static char *result[] = {
/* columns rows colors chars-per-pixel */
"16 32 211 2 ",
"   c #261A09",
".  c #271B0A",
"X  c #291C0B",
"o  c #2A1D0C",
"O  c #2A1D0D",
"+  c #2B1E0D",
"@  c #2C1F0D",
"#  c #2E1F0D",
"$  c #2D1E0E",
"%  c #332412",
"&  c #362513",
"*  c #362614",
"=  c #3A2916",
"-  c #3F2E1B",
";  c #432D16",
":  c #4B2813",
">  c #4D2814",
",  c #422D18",
"<  c #542A16",
"1  c #562C19",
"2  c #4A331E",
"3  c #6A402B",
"4  c #6C4029",
"5  c #6F482F",
"6  c #74472E",
"7  c #794434",
"8  c #7D4636",
"9  c #734F37",
"0  c #764F36",
"q  c #63513B",
"w  c #66533C",
"e  c #7B543A",
"r  c #277F77",
"t  c #745D46",
"y  c #7A6148",
"u  c #6B6B6A",
"i  c #6B6C6A",
"p  c #7F7767",
"a  c #656374",
"s  c #825134",
"d  c #845538",
"f  c #885738",
"g  c #805343",
"h  c #815345",
"j  c #935E41",
"k  c #935E43",
"l  c #8D6146",
"z  c #90644B",
"x  c #93674A",
"c  c #8D6950",
"v  c #966E58",
"b  c #9B715C",
"n  c #9B725D",
"m  c #9C735E",
"M  c #9D735E",
"N  c #9D745F",
"B  c #9F755F",
"V  c #A67156",
"C  c #A0745F",
"Z  c #A1745F",
"A  c #A8775E",
"S  c #A1785F",
"D  c #A4795F",
"F  c #906B66",
"G  c #9C6F67",
"H  c #877563",
"J  c #807766",
"K  c #817867",
"L  c #8A7865",
"P  c #887866",
"I  c #837A68",
"U  c #8B7F6C",
"Y  c #99756B",
"T  c #937E6B",
"R  c #977F6B",
"E  c #9E7272",
"W  c #A57960",
"Q  c #A77963",
"!  c #A67A64",
"~  c #A77B64",
"^  c #A77B65",
"/  c #A77D67",
"(  c #AB7A63",
")  c #AC7A63",
"_  c #A87A64",
"`  c #A97A64",
"'  c #A97B64",
"]  c #AA7B64",
"[  c #A87C65",
"{  c #A97C65",
"}  c #AA7C65",
"|  c #A97C66",
" . c #AA7D66",
".. c #AA7D67",
"X. c #A47269",
"o. c #AB7B6A",
"O. c #2A837B",
"+. c #6D897A",
"@. c #728879",
"#. c #8F806D",
"$. c #828574",
"%. c #818876",
"&. c #838876",
"*. c #838877",
"=. c #AE816E",
"-. c #B1866F",
";. c #B28370",
":. c #B38370",
">. c #B38770",
",. c #B48D77",
"<. c #BA8F79",
"1. c #BB8F7D",
"2. c #3E3492",
"3. c #3E3493",
"4. c #42399E",
"5. c #493E9F",
"6. c #433AA0",
"7. c #4438A0",
"8. c #4438A1",
"9. c #4439A1",
"0. c #4539A2",
"q. c #4539A3",
"w. c #4539A4",
"e. c #4539A5",
"r. c #4638A4",
"t. c #4639A5",
"y. c #4739A5",
"u. c #453AA4",
"i. c #463AA4",
"p. c #463AA5",
"a. c #4639A6",
"s. c #493EA0",
"d. c #483CA3",
"f. c #2B5395",
"g. c #2A5797",
"h. c #374DA3",
"j. c #3B4BA0",
"k. c #384DA3",
"l. c #3750A4",
"z. c #3850A6",
"x. c #50409D",
"c. c #45539A",
"v. c #826385",
"b. c #83678C",
"n. c #1A8883",
"m. c #1B8C87",
"M. c #1B8E89",
"N. c #158894",
"B. c #0C9795",
"V. c #0D9795",
"C. c #0E9795",
"Z. c #0C9896",
"A. c #0E9997",
"S. c #03989F",
"D. c #04999F",
"F. c #009C9D",
"G. c #009D9D",
"H. c #009E9E",
"J. c #009F9F",
"K. c #0B9C9A",
"L. c #139693",
"P. c #159592",
"I. c #129795",
"U. c #189497",
"Y. c #109B99",
"T. c #208C85",
"R. c #298A82",
"E. c #2B8A82",
"W. c #07A09F",
"Q. c #0AA29F",
"!. c #079BA7",
"~. c #049FA5",
"^. c #00A0A1",
"/. c #00A1A1",
"(. c #00A2A2",
"). c #00A3A3",
"_. c #07A1A0",
"`. c #04A4A3",
"'. c #06A4A3",
"]. c #00A4A4",
"[. c #00A5A5",
"{. c #02A4A4",
"}. c #03A5A4",
"|. c #00A5A6",
" X c #00A7A7",
".X c #00A8A7",
"XX c #00A7A8",
"oX c #03A5AA",
"OX c #04A5AB",
"+X c #00A8A8",
"@X c #00A9A9",
"#X c #01A9A9",
"$X c #00AAAA",
"%X c #00ABAB",
"&X c #07ABAA",
"*X c #00ACAB",
"=X c #07ACAB",
"-X c #00ABAC",
";X c #00ACAC",
":X c #01ACAC",
">X c #01ADAC",
",X c #00ADAD",
"<X c #00AEAE",
"1X c #00AEAF",
"2X c #00AFAF",
"3X c #12A3A0",
"4X c #00B1B1",
"5X c #00B2B2",
"6X c #CBB9BB",
"7X c #D6C3C1",
"8X c None",
/* pixels */
"8X8X8X8X# + $ X   . o O 8X8X8X8X",
"8X8X8X8X@ % * = ; , & + 8X8X8X8X",
"8X8X8X8X- c S / W D z 2 8X8X8X8X",
"8X8X8X8Xv >.=.;...:.A l 8X8X8X8X",
"8X8X8X8X<.7Xb.X.o.v.6X,.8X8X8X8X",
"8X8X8X8XV 1.E h g G -.x 8X8X8X8X",
"8X8X8X8Xk j 3 7 8 4 f d 8X8X8X8X",
"8X8X8X8X9 5 : < 1 > 0 e 8X8X8X8X",
"(.;X4X`.n.r w s 6 q O.T.Q.5X;X[.",
"$X@X;X).|.{.E.y t R.#X%X[.;X@X$X",
"$X,X<X%X,X,X}.M.m.{.2X1X%X<X,X$X",
"W.&X=X'.:X<X;X/.G.%X<X>X'.=X&X_.",
"$.%.*.@.Y.^.,X@XH.$X/.K.+.&.%.$.",
"] Z ( R P.F.;X+XH.%X].C.#.) Z ] ",
"~ m Q L L.@X;XJ.[.,X XV.I Q m ^ ",
"| ~ _ H I.,X;XG. X<XXXB.J ` ~ | ",
" . .' P 3X<X*XH..X<X%XZ.K ]  . .",
" . .} T U.S.D.~.OXoX-XA.U }  . .",
"{ [ B Y c.h.k.z.l.g.!.A.U C [ { ",
"N ! n F x.a.y.t.r.4.f.N.p b ! M ",
"8X8X8X8Xd.p.p.u.u.u.6.j.8X8X8X8X",
"8X8X8X8Xp.p.p.p.p.p.p.y.8X8X8X8X",
"8X8X8X8Xp.p.p.p.p.p.p.p.8X8X8X8X",
"8X8X8X8Xp.p.p.p.p.p.p.p.8X8X8X8X",
"8X8X8X8Xi.q.q.p.p.q.q.i.8X8X8X8X",
"8X8X8X8X0.3.3.q.0.2.3.0.8X8X8X8X",
"8X8X8X8Xu.8.8.i.i.7.9.w.8X8X8X8X",
"8X8X8X8Xp.p.p.p.p.p.p.i.8X8X8X8X",
"8X8X8X8Xp.p.p.p.p.p.p.e.8X8X8X8X",
"8X8X8X8X5.s.s.s.s.s.s.5.8X8X8X8X",
"8X8X8X8Xa a a a a a a a 8X8X8X8X",
"8X8X8X8Xu i u u u u i u 8X8X8X8X"
};
