/* XPM */
static char *result[] = {
/* columns rows colors chars-per-pixel */
"24 32 148 2 ",
"   c #302F2F",
".  c #323232",
"X  c #3D3E3D",
"o  c #4B270C",
"O  c #4D290E",
"+  c #522D11",
"@  c #5B3214",
"#  c #53341C",
"$  c #613618",
"%  c #6B3C1C",
"&  c #4F3620",
"*  c #543720",
"=  c #71401F",
"-  c #5E412D",
";  c #7A4524",
":  c #744B23",
">  c #794E26",
",  c #795027",
"<  c #734C37",
"1  c #705035",
"2  c #3D3D6C",
"3  c #38377F",
"4  c #3A3A79",
"5  c #3C3B73",
"6  c #3B4040",
"7  c #3B4070",
"8  c #136B79",
"9  c #206167",
"0  c #346F6A",
"q  c #464645",
"w  c #484847",
"e  c #464B4A",
"r  c #574F41",
"t  c #454851",
"y  c #454554",
"u  c #4E5252",
"i  c #414162",
"p  c #496969",
"a  c #526263",
"s  c #6F7379",
"d  c #7D7472",
"f  c #894F2B",
"g  c #8E532F",
"h  c #895C32",
"j  c #945732",
"k  c #A5613A",
"l  c #AD663D",
"z  c #926D40",
"x  c #9C784A",
"c  c #A7624B",
"v  c #B56C42",
"b  c #B16A4B",
"n  c #BF7247",
"m  c #B26B59",
"M  c #A77958",
"N  c #BC7357",
"B  c #925F7A",
"V  c #9A7663",
"C  c #B27977",
"Z  c #C5754B",
"A  c #C6784D",
"S  c #CA794B",
"D  c #CA7F52",
"F  c #938462",
"G  c #BC9D6A",
"H  c #B98079",
"J  c #C78156",
"K  c #CE8456",
"L  c #CE875E",
"P  c #C98A65",
"I  c #D28E67",
"U  c #D29060",
"Y  c #D79A68",
"T  c #C9A571",
"R  c #DFAA76",
"E  c #E1AD79",
"W  c #E0AC77",
"Q  c #E3B37D",
"!  c #373780",
"~  c #383780",
"^  c #343B83",
"/  c #1B5C9C",
"(  c #2C468C",
")  c #274F92",
"_  c #275292",
"`  c #0C6EAB",
"'  c #1169A6",
"]  c #196AA2",
"[  c #0C72AC",
"{  c #0C78AD",
"}  c #1570A7",
"|  c #1479AD",
" . c #1A77A7",
".. c #0E8A93",
"X. c #138DAF",
"o. c #0F87B0",
"O. c #0F8AB1",
"+. c #108EB1",
"@. c #1093B3",
"#. c #2697A5",
"$. c #2D87B7",
"%. c #2684B6",
"&. c #15AAB7",
"*. c #1AABBA",
"=. c #14B2B9",
"-. c #15BEBB",
";. c #3FB4A8",
":. c #24AAB6",
">. c #2FA2BE",
",. c #28B9B2",
"<. c #759980",
"1. c #77999A",
"2. c #54A593",
"3. c #599AA3",
"4. c #7497A0",
"5. c #15C1BD",
"6. c #34C4B9",
"7. c #52A6C9",
"8. c #70BED6",
"9. c #26C4C1",
"0. c #75C2D5",
"q. c #A6BBA2",
"w. c #D9BA8B",
"e. c #D2A190",
"r. c #A2C8BB",
"t. c #ABDDB1",
"y. c #EEC98F",
"u. c #ECC58C",
"i. c #ECD399",
"p. c #F7DA9E",
"a. c #F2D59A",
"s. c #F9DEA1",
"d. c #E5E5AD",
"f. c #EDE6AC",
"g. c #FBE2A4",
"h. c #FFEAAB",
"j. c #FDE6A9",
"k. c #94C8C9",
"l. c #95DBE5",
"z. c #8AE3E3",
"x. c #A9E7E8",
"c. c #AEEEEE",
"v. c #A2EBEC",
"b. c #B0EFEF",
"n. c #B1EBE7",
"m. c #ADF0F1",
"M. c #B1F3F2",
"N. c None",
/* pixels */
"N.N.N.N.N.N.N.N.+ O N.N.N.N.N.N.N.N.N.N.N.N.N.N.",
"N.N.N.N.N.N.N.: + O o o O O N.N.N.N.N.N.N.N.N.N.",
"N.N.N.N.N.N.> : + ; % @ O O o N.N.N.N.N.N.N.N.N.",
"N.N.N.N.N.> > > j n Z v k g $ N.N.N.N.N.N.N.N.N.",
"N.N.N.N.N.> , h A I N A S S j N.N.N.N.N.N.N.N.N.",
"N.N.N.N.N.: z T J e.B n m C P N.N.N.N.N.N.N.N.N.",
"N.N.N.N.N.: x a.K A b l c C I N.N.N.N.N.N.N.N.N.",
"N.N.N.N.N.> G p.K v ; v k l A N.N.N.N.N.N.N.N.N.",
"N.N.N.v.N.F i.i.A v @ = $ f S N.N.N.N.N.N.N.N.N.",
"N.N.9.z.b.x.r.p e - # & & 1 M N.N.h.h.h.h.h.W Z ",
"N.N.-.>.7.8.0.#...0 1 r 9 8 ;.f.h.h.h.h.h.h.E Z ",
"N.N.=.{ ` ` | &.5.,.<.2.-.-.6.d.h.h.h.h.h.h.Q Z ",
"N.t.:.[ [ ` [ =.5.-.5.-.-.-.6.d.h.j.g.g.s.s.R Z ",
"N.f.3.] } ` [ =.-.-.-.-.-.-.:.q.w.Q E N.N.N.N.N.",
"N.s.P M V V | =.5.-.-.-.-.-.N.N.N.N.N.N.N.N.N.N.",
"N.y.S S S V | =.-.-.5.-.-.-.N.N.N.N.N.N.N.N.N.N.",
"h.W S A A s { =.-.-.-.-.-.5.N.N.N.N.N.N.N.N.N.N.",
"s.U S A S N.{ =.-.-.-.-.-.-.N.N.N.N.N.N.N.N.N.N.",
"u.D A S S N.{ =.5.-.-.-.-.-.N.N.N.N.N.N.N.N.N.N.",
"Y A S A N.N._ +.@.X.O.o.&.-.N.N.N.N.N.N.N.N.N.N.",
"N.N.N.N.N.N.! / [ ` ` ` | &.N.N.N.N.N.N.N.N.N.N.",
"N.N.N.N.N.N.! ^ / [ [ ` / N.N.N.N.N.N.N.N.N.N.N.",
"N.N.N.N.N.N.! ! ^ ] ` [ ` ' N.N.N.N.N.N.N.N.N.N.",
"N.N.N.N.N.N.3 ! ! ( ' ` ` ` ` N.N.N.N.N.N.N.N.N.",
"N.N.N.N.N.N.N.5 ~ ~ ) ' [ ` [ %.N.N.N.N.N.N.N.N.",
"N.N.N.N.N.N.N.i ! ~ 3 ) $.7.0.l.m.N.N.N.N.N.N.N.",
"N.N.N.N.N.N.N.t 7 ! ~ 4 4.m.M.x.k.N.N.N.N.N.N.N.",
"N.N.N.N.N.N.N.N.N.! ! 2 u 1.1.a 6 N.N.N.N.N.N.N.",
"N.N.N.N.N.N.N.N.N.N.~ i w X     . N.N.N.N.N.N.N.",
"N.N.N.N.N.N.N.N.N.N.N.y w . . . . N.N.N.N.N.N.N.",
"N.N.N.N.N.N.N.N.N.N.N.w q . . . N.N.N.N.N.N.N.N.",
"N.N.N.N.N.N.N.N.N.N.N.N.X . N.N.N.N.N.N.N.N.N.N."
};
