/* XPM */
static char *result[] = {
/* columns rows colors chars-per-pixel */
"32 32 136 2 ",
"   c #271B0E",
".  c #291B0F",
"X  c #2A1D11",
"o  c #322214",
"O  c #35271A",
"+  c #3C2C1F",
"@  c #3F352B",
"#  c #42362C",
"$  c #4A3628",
"%  c #44392D",
"&  c #4F3828",
"*  c #533E2E",
"=  c #5B3E2E",
"-  c #493C30",
";  c #613B32",
":  c #574030",
">  c #54473A",
",  c #5F4A39",
"<  c #62412E",
"1  c #694132",
"2  c #734B36",
"3  c #4C3F7D",
"4  c #3D5149",
"5  c #385651",
"6  c #1E6667",
"7  c #11777C",
"8  c #1E7879",
"9  c #296563",
"0  c #3E7A7B",
"q  c #4F5749",
"w  c #744C40",
"e  c #675542",
"r  c #6C5443",
"t  c #795D4F",
"y  c #5B5E64",
"u  c #56576E",
"i  c #595B6B",
"p  c #4E4B7D",
"a  c #525175",
"s  c #64516B",
"d  c #7A5964",
"f  c #695276",
"g  c #775C7B",
"h  c #5B7B6D",
"j  c #5C6B77",
"k  c #4B7472",
"l  c #4C7A76",
"z  c #577F7C",
"x  c #6C746E",
"c  c #607773",
"v  c #607A75",
"b  c #627E79",
"n  c #825844",
"m  c #8C5C42",
"M  c #845B52",
"N  c #9A6A4E",
"B  c #866554",
"V  c #8D6657",
"C  c #86655A",
"Z  c #896758",
"A  c #81695E",
"S  c #8D6A5D",
"D  c #906552",
"F  c #926C5E",
"G  c #9A6F5E",
"H  c #9B725F",
"J  c #93755B",
"K  c #A17356",
"L  c #876763",
"P  c #886667",
"I  c #856C61",
"U  c #896F62",
"Y  c #89686D",
"T  c #926E60",
"R  c #947163",
"E  c #9B7463",
"W  c #9C7769",
"Q  c #9D7868",
"!  c #A27663",
"~  c #45807E",
"^  c #B6815F",
"/  c #9E927D",
"(  c #AB8466",
")  c #A1837E",
"_  c #C08866",
"`  c #C68869",
"'  c #C98969",
"]  c #372F8D",
"[  c #382F8D",
"{  c #3B3295",
"}  c #333992",
"|  c #3C339B",
" . c #3E3B94",
".. c #423B92",
"X. c #433CA3",
"o. c #443CA9",
"O. c #2C5C8B",
"+. c #2B4A95",
"@. c #225A97",
"#. c #28569D",
"$. c #037B83",
"%. c #0A7E86",
"&. c #1B6396",
"*. c #136F97",
"=. c #494487",
"-. c #47418C",
";. c #4D498B",
":. c #53508A",
">. c #4540A4",
",. c #4740A9",
"<. c #4B43B0",
"1. c #977C80",
"2. c #00888F",
"3. c #1B8287",
"4. c #1D8489",
"5. c #018791",
"6. c #028C95",
"7. c #0C8E96",
"8. c #028E98",
"9. c #02929C",
"0. c #0B959D",
"q. c #218388",
"w. c #0196A1",
"e. c #0A95A0",
"r. c #0199A4",
"t. c #0A98A2",
"y. c #26A3AE",
"u. c #2EA2AC",
"i. c #34A1A0",
"p. c #27AAB6",
"a. c #2CAEB3",
"s. c #45958D",
"d. c #34BFC9",
"f. c #998491",
"g. c #B0A0A9",
"h. c None",
/* pixels */
"h.h.h.h.h.h.h.h.h.h.h.h.h.h.h.h.h.h.h.h.h.h.h.h.h.h.h.h.h.h.h.h.",
"h.h.h.h.h.h.h.h.h.h.h.h.h.h.h.h.h.h.h.h.h.h.h.h.h.h.h.h.h.h.h.h.",
"h.h.h.h.h.h.h.h.h.h.h.# % - + X X X X   X h.h.h.h.h.h.h.h.h.h.h.",
"h.h.h.h.h.h.h.h.h.h.h.# @ % O + % & : & O h.h.h.h.h.h.h.h.h.h.h.",
"h.h.h.h.h.h.h.h.h.h.h.# # @ $ B Q Q Q D < h.h.h.h.h.h.h.h.h.h.h.",
"h.h.h.h.h.h.h.h.h.h.h.# % , t ) Y T P 1.R h.h.h.h.h.h.h.h.h.h.h.",
"h.h.h.h.h.h.h.h.h.h.h.# - K R g.g M d f.R h.h.h.h.h.h.h.h.h.h.h.",
"h.h.h.h.h.h.h.h.h.h.h.% r ^ N S M ; w n 2 h.h.h.h.h.h.h.h.h.h.h.",
"h.h.h.h.h.h.h.h.h.h.h.J ( ^ m 2 1 ; ; 2 e h.h.h.h.h.h.h.h.h.h.h.",
"h.h.h.h.h.h.h.h.h.d.a.i.s.h q : ; * q 9 8 7.6.h.h.h.h.h.h.h.h.h.",
"h.h.h.h.h.h.h.h.h.p.0.6.5.$.$.9 > 4 2.6.9.9.0.h.h.h.h.h.h.h.h.h.",
"h.h.h.h.h.h.h.h.h.y.t.8.8.8.8.5.7 3.9.r.9.r.9.h.h.h.h.h.h.h.h.h.",
"h.h.h.h.h.h.h.h.h.u.0.9.7.8.w.8.2.6.9.7.~ ~ x h.h.h.h.h.h.h.h.h.",
"h.h.h.h.h.h.h.h.h./ b c x 0 5.8.8.8.9.3.U S J h.h.h.h.h.h.h.h.h.",
"h.h.h.h.h.h.h.h.h.' G C F k 5.9.8.9.9.3.I S S h.h.h.h.h.h.h.h.h.",
"h.h.h.h.h.h.h.h.h.' E C S k 9.w.8.9.r.3.d F R h.h.h.h.h.h.h.h.h.",
"h.h.h.h.h.h.h.h.h.` ! U S k w.w.8.9.r.4.A T R h.h.h.h.h.h.h.h.h.",
"h.h.h.h.h.h.h.h.h.` ! T T l 9.8.9.9.r.4.I F R h.h.h.h.h.h.h.h.h.",
"h.h.h.h.h.h.h.h.h.' ! T F j &.@.#.+.*.q.A S S h.h.h.h.h.h.h.h.h.",
"h.h.h.h.h.h.h.h.h.' ! S C f | | | | } O.h.h.h.h.h.h.h.h.h.h.h.h.",
"h.h.h.h.h.h.h.h.h.h.H L s p | | | | | | h.h.h.h.h.h.h.h.h.h.h.h.",
"h.h.h.h.h.h.h.h.h.h.h.h. .| | | | | | | h.h.h.h.h.h.h.h.h.h.h.h.",
"h.h.h.h.h.h.h.h.h.h.h.h.X.X.| | | | | | h.h.h.h.h.h.h.h.h.h.h.h.",
"h.h.h.h.h.h.h.h.h.h.h.h.X.o.| | | | { | h.h.h.h.h.h.h.h.h.h.h.h.",
"h.h.h.h.h.h.h.h.h.h.h.h.>.o.{ ] { { [ | h.h.h.h.h.h.h.h.h.h.h.h.",
"h.h.h.h.h.h.h.h.h.h.h.h.,.o.{ { | | | | h.h.h.h.h.h.h.h.h.h.h.h.",
"h.h.h.h.h.h.h.h.h.h.h.h.<.o.| | | | | | h.h.h.h.h.h.h.h.h.h.h.h.",
"h.h.h.h.h.h.h.h.h.h.h.h.:.o.| | | | ..-.h.h.h.h.h.h.h.h.h.h.h.h.",
"h.h.h.h.h.h.h.h.h.h.h.h.i ;.=.p a i i y h.h.h.h.h.h.h.h.h.h.h.h.",
"h.h.h.h.h.h.h.h.h.h.h.h.y y y y y y h.h.h.h.h.h.h.h.h.h.h.h.h.h.",
"h.h.h.h.h.h.h.h.h.h.h.h.h.h.h.h.h.h.h.h.h.h.h.h.h.h.h.h.h.h.h.h.",
"h.h.h.h.h.h.h.h.h.h.h.h.h.h.h.h.h.h.h.h.h.h.h.h.h.h.h.h.h.h.h.h."
};
