/* XPM */
static char *dbef660ded0b496d808910184e4060edThrek4kVKgbLXxN2[] = {
/* columns rows colors chars-per-pixel */
"32 32 256 2 ",
"   c black",
".  c #010101",
"X  c #020202",
"o  c gray1",
"O  c #040404",
"+  c gray2",
"@  c #060606",
"#  c #070707",
"$  c gray3",
"%  c #090909",
"&  c gray4",
"*  c #0B0B0B",
"=  c #0C0C0C",
"-  c gray5",
";  c #0E0E0E",
":  c gray6",
">  c #101010",
",  c #111111",
"<  c gray7",
"1  c #131313",
"2  c gray8",
"3  c #151515",
"4  c #161616",
"5  c gray9",
"6  c #181818",
"7  c #191919",
"8  c gray10",
"9  c #1B1B1B",
"0  c gray11",
"q  c #1D1D1D",
"w  c #1E1E1E",
"e  c gray12",
"r  c #202020",
"t  c gray13",
"y  c #222222",
"u  c #232323",
"i  c gray14",
"p  c #252525",
"a  c gray15",
"s  c #272727",
"d  c #282828",
"f  c gray16",
"g  c #2A2A2A",
"h  c gray17",
"j  c #2C2C2C",
"k  c #2D2D2D",
"l  c gray18",
"z  c #2F2F2F",
"x  c gray19",
"c  c #313131",
"v  c #323232",
"b  c gray20",
"n  c #343434",
"m  c #353535",
"M  c gray21",
"N  c #373737",
"B  c gray22",
"V  c #393939",
"C  c #3A3A3A",
"Z  c gray23",
"A  c #3C3C3C",
"S  c gray24",
"D  c #3E3E3E",
"F  c #3F3F3F",
"G  c gray25",
"H  c #414141",
"J  c gray26",
"K  c #434343",
"L  c #444444",
"P  c gray27",
"I  c #464646",
"U  c gray28",
"Y  c #484848",
"T  c #494949",
"R  c gray29",
"E  c #4B4B4B",
"W  c #4C4C4C",
"Q  c gray30",
"!  c #4E4E4E",
"~  c gray31",
"^  c #505050",
"/  c #515151",
"(  c gray32",
")  c #535353",
"_  c gray33",
"`  c #555555",
"'  c #565656",
"]  c gray34",
"[  c #585858",
"{  c gray35",
"}  c #5A5A5A",
"|  c #5B5B5B",
" . c gray36",
".. c #5D5D5D",
"X. c gray37",
"o. c #5F5F5F",
"O. c #606060",
"+. c gray38",
"@. c #626262",
"#. c gray39",
"$. c #646464",
"%. c #656565",
"&. c gray40",
"*. c #676767",
"=. c #686868",
"-. c DimGray",
";. c #6A6A6A",
":. c gray42",
">. c #6C6C6C",
",. c #6D6D6D",
"<. c gray43",
"1. c #6F6F6F",
"2. c gray44",
"3. c #717171",
"4. c #727272",
"5. c gray45",
"6. c #747474",
"7. c gray46",
"8. c #767676",
"9. c #777777",
"0. c gray47",
"q. c #797979",
"w. c gray48",
"e. c #7B7B7B",
"r. c #7C7C7C",
"t. c gray49",
"y. c #7E7E7E",
"u. c gray50",
"i. c #808080",
"p. c #818181",
"a. c gray51",
"s. c #838383",
"d. c #848484",
"f. c gray52",
"g. c #868686",
"h. c gray53",
"j. c #888888",
"k. c #898989",
"l. c gray54",
"z. c #8B8B8B",
"x. c gray55",
"c. c #8D8D8D",
"v. c #8E8E8E",
"b. c gray56",
"n. c #909090",
"m. c gray57",
"M. c #929292",
"N. c #939393",
"B. c gray58",
"V. c #959595",
"C. c gray59",
"Z. c #979797",
"A. c #989898",
"S. c gray60",
"D. c #9A9A9A",
"F. c #9B9B9B",
"G. c gray61",
"H. c #9D9D9D",
"J. c gray62",
"K. c #9F9F9F",
"L. c #A0A0A0",
"P. c gray63",
"I. c #A2A2A2",
"U. c gray64",
"Y. c #A4A4A4",
"T. c #A5A5A5",
"R. c gray65",
"E. c #A7A7A7",
"W. c gray66",
"Q. c #A9A9A9",
"!. c #AAAAAA",
"~. c gray67",
"^. c #ACACAC",
"/. c gray68",
"(. c #AEAEAE",
"). c #AFAFAF",
"_. c gray69",
"`. c #B1B1B1",
"'. c #B2B2B2",
"]. c gray70",
"[. c #B4B4B4",
"{. c gray71",
"}. c #B6B6B6",
"|. c #B7B7B7",
" X c gray72",
".X c #B9B9B9",
"XX c gray73",
"oX c #BBBBBB",
"OX c #BCBCBC",
"+X c gray74",
"@X c gray",
"#X c gray75",
"$X c #C0C0C0",
"%X c #C1C1C1",
"&X c gray76",
"*X c #C3C3C3",
"=X c gray77",
"-X c #C5C5C5",
";X c #C6C6C6",
":X c gray78",
">X c #C8C8C8",
",X c gray79",
"<X c #CACACA",
"1X c #CBCBCB",
"2X c gray80",
"3X c #CDCDCD",
"4X c #CECECE",
"5X c gray81",
"6X c #D0D0D0",
"7X c gray82",
"8X c #D2D2D2",
"9X c LightGray",
"0X c gray83",
"qX c #D5D5D5",
"wX c gray84",
"eX c #D7D7D7",
"rX c #D8D8D8",
"tX c gray85",
"yX c #DADADA",
"uX c gray86",
"iX c gainsboro",
"pX c #DDDDDD",
"aX c gray87",
"sX c #DFDFDF",
"dX c gray88",
"fX c #E1E1E1",
"gX c #E2E2E2",
"hX c gray89",
"jX c #E4E4E4",
"kX c gray90",
"lX c #E6E6E6",
"zX c #E7E7E7",
"xX c gray91",
"cX c #E9E9E9",
"vX c #EAEAEA",
"bX c gray92",
"nX c #ECECEC",
"mX c gray93",
"MX c #EEEEEE",
"NX c #EFEFEF",
"BX c gray94",
"VX c #F1F1F1",
"CX c gray95",
"ZX c #F3F3F3",
"AX c #F4F4F4",
"SX c gray96",
"DX c #F6F6F6",
"FX c gray97",
"GX c #F8F8F8",
"HX c #F9F9F9",
"JX c gray98",
"KX c #FBFBFB",
"LX c gray99",
"PX c #FDFDFD",
"IX c #FEFEFE",
"UX c white",
/* pixels */
"p.0.6.9.8.4.4.0.5.6.p.u.x.m.v.b.4.#.g.x.p.g.9.8.7.1.5.q.4.1.0.i.",
"u.t.t.s.z.n.v.l.v.z.n.j.M.N.v.c.q.>.l.C.c.x.h.n.u.=.:.t.y.u.y.3.",
"i.u.p.j.n.N.M.n.m.b.N.l.n.b.v.m.0.6.d.b.b.v.v.V.i.%.,.a.u.i.p.4.",
"u.2.;.6.r.0.8.q.,.6.t.q.t.9.q.t.h.j.i.r.u.d.f.i.p.6.i.b.g.y.p.y.",
"a.<.#.:.7.7.2.<.@.=.1.2.9.1.1.<.b.b.t.4.9.y.d.u.a.i.h.m.n.s.t.i.",
"i.a.p.t.r.u.u.r.e.7.,.,.t.u.j.h.d.d.r.e.e.8.0.e.6.9.8.w.y.0.7.u.",
"q.z.B.z.u.t.u.y.s.q.-.-.e.p.n.M.i.y.i.i.r.6.<.1.4.4.4.3.3.4.9.t.",
"i.j.b.v.j.p.r.q.q.9.<.1.e.8.i.i.r.9.w.9.e.g.g.d.h.i.s.g.a.s.p.7.",
"i.z.b.M.B.a.3.4.3.4.8.8.4.3.5.5.3.7.2.5.h.V.V.B.M.C.B.c.M.F.l.=.",
"q.u.p.d.k.s.w.e.r.0.5.5.9.0.7.5.0.q.1.,.t.j.f.a.f.u.p.g.p.q.9.9.",
"2.4.6.8.r.i.i.u.y.y.7.2.6.5.2.5.i.t.<.=.7.u.u.u.0.>.<.8.,.+.:.y.",
"t.t.t.r.e.i.p.t.y.u.8.5.t.u.r.a.u.u.5.,.0.u.u.i.u.t.y.y.w.0.9.6.",
"m.m.b.k.a.a.p.t.p.t.4.0.b.A.M.M.u.f.p.y.f.f.u.y.l.N.Z.M.N.S.k.:.",
"l.x.l.d.i.t.r.r.r.q.5.8.f.z.h.g.e.u.w.9.t.t.q.e.u.f.j.d.j.m.h.2.",
"r.u.t.r.u.q.6.9.7.8.7.6.5.4.4.6.4.4.-.%.,.4.4.8.6.3.3.4.6.r.i.e.",
"y.a.i.p.h.r.1.4.9.6.7.8.7.8.0.8.8.8.<.,.0.e.8.9.w.8.0.e.r.u.s.a.",
"r.x.M.c.A.a.o.9.V.j.5.8.t.u.s.t.t.a.j.M.m.v.M.n.n.M.b.b.N.v.z.m.",
"i.g.v.k.z.u.*.5.l.s.8.w.y.t.p.r.u.u.j.v.c.c.v.c.x.c.v.x.l.b.m.c.",
"i.8.e.8.6.8.2.7.q.9.1.3.6.8.y.i.=.*.0.u.i.a.9.8.8.6.6.6.t.b.n.y.",
"i.3.3.4.6.9.6.8.3.5.6.8.8.0.r.u.,.&.0.t.p.f.7.5.6.6.3.1.r.v.c.r.",
"d.t.t.f.c.s.5.5.6.r.j.v.x.g.e.7.,.@.3.9.a.M.z.v.h.b.k.t.y.a.p.a.",
"t.i.i.k.N.f.5.7.4.e.x.M.m.l.w.5.;.#.<.8.p.b.b.M.v.M.z.i.u.u.r.r.",
",.0.t.i.d.u.e.w.3.7.a.s.s.f.r.e.g.f.l.x.j.f.s.p.j.p.d.j.j.b.j.3.",
"#.7.a.s.y.u.s.r.7.9.p.y.y.s.y.a.b.m.m.n.f.r.u.y.y.8.k.V.x.B.c.%.",
"5.y.0.3.q.w.7.q.5.5.9.7.9.w.8.8.l.n.c.v.d.8.q.9.9.8.e.e.e.r.w.y.",
"s.7.2.8.9.6.3.1.4.5.9.5.5.8.5.7.c.N.n.c.i.3.4.4.8.3.6.5.5.6.5.w.",
"p.u.f.t.<.e.h.w.:.2.w.w.0.q.6.7.q.i.p.u.7.,.4.8.9.9.e.0.e.d.f.k.",
"q.z.C.p.>.s.Z.h.%.,.t.p.p.i.9.6.1.4.5.2.;.&.:.1.0.i.f.t.a.B.C.M.",
"u.d.h.i.q.y.a.y.:.1.q.w.e.e.7.5.w.q.w.0.0.e.y.p.u.i.p.9.q.d.d.d.",
"i.u.t.i.a.w.4.5.6.5.8.3.2.6.4.6.u.t.p.a.l.B.V.Z.k.t.q.7.5.5.5.r.",
"9.e.t.r.e.0.7.4.2.6.y.y.r.t.0.q.i.r.u.y.s.l.d.a.d.w.0.8.9.0.0.p.",
"8.2.4.5.2.4.7.3.@.4.l.B.B.b.a.y.p.r.p.t.u.a.8.5.5.6.9.4.8.p.p.u."
};
